# Blender v2.91.0 OBJ File: 'animatedDrawer2Structure.blend'
# www.blender.org
mtllib animatedDrawer2Structure.mtl
o Cubo.009_Cubo.012
v 15.595563 -10.783566 6.050075
v 17.335651 10.783556 6.050075
v 15.595567 -10.783566 -6.050062
v 17.335651 9.390836 6.050075
v -15.595574 -10.783557 6.050062
v -15.595571 -10.783557 -6.050075
v 15.595570 9.390837 6.050075
v 15.595573 9.390837 -6.050062
v -15.595564 9.390846 -6.050075
v -15.595568 9.390846 6.050062
v 15.595571 1.150020 -6.050062
v -15.595567 1.150030 -6.050075
v -15.595571 1.150030 6.050062
v 15.595567 1.150020 6.050075
v 15.595571 -0.838911 -6.050062
v -15.595567 -0.838901 -6.050075
v -15.595571 -0.838901 6.050062
v 15.595567 -0.838911 6.050075
v 14.343277 -10.783566 -6.050063
v 14.343285 10.783557 -6.050063
v 14.343273 -10.783566 6.050074
v 14.343281 10.783557 6.050074
v 14.343280 9.390837 6.050074
v -15.595570 -9.882531 -6.050075
v 15.595564 -9.882541 6.050075
v 14.343277 1.150021 6.050074
v 14.343277 -0.838910 6.050074
v 14.343281 -0.838911 -6.050063
v -14.121189 10.783566 -6.050074
v -14.121201 -10.783557 6.050063
v 15.595568 -9.882541 -6.050062
v -15.595573 -9.882531 6.050062
v -14.121193 -0.838901 -6.050074
v -14.121197 -10.783557 -6.050074
v -14.121193 10.783566 6.050063
v -14.121194 9.390846 6.050063
v -14.121197 1.150030 6.050063
v -14.121197 -0.838901 6.050063
v 14.343284 9.390837 -6.050063
v 14.343281 1.150020 -6.050063
v -14.121190 9.390846 -6.050074
v -14.121193 1.150030 -6.050074
v 14.343278 -9.882541 -6.050063
v 14.343274 -9.882541 6.050074
v -14.121200 -9.882531 6.050063
v -14.121196 -9.882531 -6.050074
v -17.130701 9.390847 6.050062
v -17.130701 10.783567 6.050062
v -17.130697 10.783567 -6.050075
v -17.130697 9.390847 -6.050075
v 17.335655 10.783556 -6.050062
v 17.335655 9.390836 -6.050062
v 15.595570 8.072306 6.050075
v 15.595573 8.072306 -6.050062
v -15.595564 8.072315 -6.050075
v -15.595568 8.072315 6.050062
v 14.343284 8.072306 -6.050063
v 14.343280 8.072306 6.050074
v -14.121194 8.072315 6.050063
v -14.121190 8.072315 -6.050074
v 15.595566 -1.913171 6.050075
v 15.595570 -1.913172 -6.050062
v 14.343280 -1.913171 -6.050063
v -15.595568 -1.913161 -6.050075
v 14.343276 -1.913171 6.050074
v -15.595572 -1.913161 6.050062
v -14.121198 -1.913162 6.050063
v -14.121194 -1.913162 -6.050074
v 15.595573 8.072306 -6.050062
v 15.595573 8.072306 -6.050062
v 15.595571 1.150020 -6.050062
v 15.595571 1.150020 -6.050062
v 15.595567 1.150020 6.050075
v 15.595567 1.150020 6.050075
v 15.595570 8.072306 6.050075
v 15.595570 8.072306 6.050075
v -5.639107 -10.783560 -6.050071
v -5.639105 10.783564 6.050066
v -5.639106 9.390843 6.050066
v -5.639108 1.150027 6.050066
v -5.639109 -0.838904 6.050066
v -5.639101 10.783564 -6.050071
v -5.639112 -10.783560 6.050066
v -5.639102 9.390843 -6.050071
v -5.639104 1.150027 -6.050071
v -5.639105 -0.838904 -6.050071
v -5.639108 -9.882534 -6.050071
v -5.639112 -9.882534 6.050066
v -5.639106 8.072312 6.050066
v -5.639109 -1.913164 6.050066
v 5.834969 -10.783564 -6.050066
v 5.834971 10.783560 6.050071
v 5.834970 9.390840 6.050071
v 5.834968 1.150023 6.050071
v 5.834967 -0.838908 6.050071
v 5.834964 -9.882538 6.050071
v 5.834970 8.072309 6.050071
v 5.834967 -1.913168 6.050071
v 5.834976 10.783560 -6.050066
v 5.834964 -10.783564 6.050071
v 5.834975 9.390840 -6.050066
v 5.834973 1.150023 -6.050066
v 5.834972 -0.838908 -6.050066
v 5.834969 -9.882538 -6.050066
vt 0.608856 0.250000
vt 0.608856 0.250000
vt 0.608856 0.000000
vt 0.608856 0.000000
vt 0.608856 0.488183
vt 0.608856 0.500000
vt 0.608856 0.500000
vt 0.625000 0.500000
vt 0.625000 0.488183
vt 0.608856 0.750000
vt 0.608856 0.750000
vt 0.608856 0.989963
vt 0.608856 1.000000
vt 0.608856 1.000000
vt 0.625000 1.000000
vt 0.625000 0.989963
vt 0.363183 0.500000
vt 0.363183 0.750000
vt 0.375000 0.750000
vt 0.375000 0.500000
vt 0.864963 0.500000
vt 0.864963 0.750000
vt 0.875000 0.750000
vt 0.875000 0.500000
vt 0.593572 1.000000
vt 0.593572 1.000000
vt 0.593572 1.000000
vt 0.593572 0.500000
vt 0.593572 0.750000
vt 0.593572 0.488183
vt 0.593572 0.000000
vt 0.593572 0.250000
vt 0.593572 0.250000
vt 0.593572 0.000000
vt 0.513331 0.000000
vt 0.513331 0.250000
vt 0.513331 0.250000
vt 0.513331 0.000000
vt 0.490276 0.488183
vt 0.490276 0.500000
vt 0.513331 0.500000
vt 0.513331 0.488183
vt 0.490276 0.750000
vt 0.513331 0.750000
vt 0.513331 1.000000
vt 0.513331 1.000000
vt 0.513331 1.000000
vt 0.477823 0.989963
vt 0.477823 1.000000
vt 0.490276 1.000000
vt 0.490276 0.989963
vt 0.477823 0.500000
vt 0.477823 0.750000
vt 0.477823 0.488183
vt 0.477823 0.000000
vt 0.477823 0.250000
vt 0.490276 0.250000
vt 0.490276 0.000000
vt 0.477823 0.260037
vt 0.490276 0.260037
vt 0.477823 0.921768
vt 0.490276 0.921768
vt 0.513331 0.989963
vt 0.513331 0.921768
vt 0.513331 0.250000
vt 0.593572 0.250000
vt 0.593572 0.921768
vt 0.593572 0.989963
vt 0.608856 0.921768
vt 0.796768 0.500000
vt 0.796768 0.750000
vt 0.125000 0.500000
vt 0.125000 0.750000
vt 0.135037 0.750000
vt 0.135037 0.500000
vt 0.625000 0.921768
vt 0.625000 0.250000
vt 0.608856 0.260037
vt 0.625000 0.260037
vt 0.625000 0.750000
vt 0.608856 0.761817
vt 0.625000 0.761817
vt 0.636817 0.750000
vt 0.636817 0.500000
vt 0.593572 0.761817
vt 0.490276 0.761817
vt 0.513331 0.761817
vt 0.477823 0.761817
vt 0.490276 0.420198
vt 0.513331 0.420198
vt 0.375000 0.420198
vt 0.375000 0.488183
vt 0.385444 0.488183
vt 0.385444 0.420198
vt 0.295198 0.500000
vt 0.295198 0.750000
vt 0.608856 0.420198
vt 0.625000 0.420198
vt 0.375000 0.761817
vt 0.385444 0.761817
vt 0.385444 0.750000
vt 0.375000 0.921768
vt 0.375000 0.989963
vt 0.385444 0.989963
vt 0.385444 0.921768
vt 0.375000 0.250000
vt 0.375000 0.260037
vt 0.385444 0.260037
vt 0.385444 0.250000
vt 0.375000 0.000000
vt 0.385444 0.000000
vt 0.385444 0.500000
vt 0.375000 1.000000
vt 0.385444 1.000000
vt 0.625000 0.000000
vt 0.513331 0.000000
vt 0.593572 0.000000
vt 0.593572 0.260037
vt 0.513331 0.260037
vt 0.385444 0.829802
vt 0.477823 0.829802
vt 0.513331 0.829802
vt 0.593572 0.829802
vt 0.375000 0.829802
vt 0.608856 0.328232
vt 0.625000 0.328232
vt 0.203232 0.500000
vt 0.203232 0.750000
vt 0.375000 0.328232
vt 0.385444 0.328232
vt 0.490276 0.328232
vt 0.513331 0.328232
vt 0.608856 0.829802
vt 0.625000 0.829802
vt 0.704802 0.750000
vt 0.704802 0.500000
vt 0.490276 0.829802
vn -0.0000 -1.0000 0.0000
vn 0.0000 0.0000 -1.0000
vn -0.0000 0.0000 1.0000
vn 0.0000 1.0000 0.0000
vn -1.0000 0.0000 -0.0000
vn 1.0000 -0.0000 0.0000
usemtl Material.039
s off
f 8/1/1 52/2/1 4/3/1 7/4/1
f 41/5/2 9/6/2 50/7/2 49/8/2 29/9/2
f 10/10/1 47/11/1 50/7/1 9/6/1
f 23/12/3 7/13/3 4/14/3 2/15/3 22/16/3
f 34/17/1 30/18/1 5/19/1 6/20/1
f 20/21/4 22/22/4 2/23/4 51/24/4
f 76/25/3 53/26/3 75/27/3
f 55/28/5 56/29/5 10/10/5 9/6/5
f 60/30/2 55/28/2 9/6/2 41/5/2
f 53/31/3 54/32/3 69/33/3 75/34/3
f 73/35/3 71/36/3 11/37/3 14/38/3
f 33/39/2 16/40/2 12/41/2 42/42/2
f 16/40/5 17/43/5 13/44/5 12/41/5
f 73/45/3 14/46/3 74/47/3
f 65/48/3 61/49/3 18/50/3 27/51/3
f 64/52/5 66/53/5 17/43/5 16/40/5
f 68/54/2 64/52/2 16/40/2 33/39/2
f 61/55/6 62/56/6 15/57/6 18/58/6
f 62/56/2 63/59/2 28/60/2 15/57/2
f 98/61/3 65/48/3 27/51/3 95/62/3
f 95/62/3 27/51/3 26/63/3 94/64/3
f 71/36/3 72/65/3 11/37/3
f 54/32/3 70/66/3 69/33/3
f 97/67/3 58/68/3 23/12/3 93/69/3
f 99/70/4 92/71/4 22/22/4 20/21/4
f 3/72/1 1/73/1 21/74/1 19/75/1
f 93/69/3 23/12/3 22/16/3 92/76/3
f 51/77/2 52/2/2 8/1/2 39/78/2 20/79/2
f 48/80/3 47/11/3 10/10/3 36/81/3 35/82/3
f 49/8/4 48/80/4 35/83/4 29/84/4
f 56/29/3 59/85/3 36/81/3 10/10/3
f 17/43/3 38/86/3 37/87/3 13/44/3
f 66/53/3 67/88/3 38/86/3 17/43/3
f 86/89/2 33/39/2 42/42/2 85/90/2
f 77/91/2 34/92/2 46/93/2 87/94/2
f 77/95/1 83/96/1 30/18/1 34/17/1
f 84/97/2 41/5/2 29/9/2 82/98/2
f 5/19/3 30/99/3 45/100/3 32/101/3
f 100/102/3 21/103/3 44/104/3 96/105/3
f 3/106/2 19/107/2 43/108/2 31/109/2
f 1/110/6 3/106/6 31/109/6 25/111/6
f 34/92/2 6/20/2 24/112/2 46/93/2
f 6/20/5 5/19/5 32/101/5 24/112/5
f 21/103/3 1/113/3 25/114/3 44/104/3
f 50/7/5 47/11/5 48/80/5 49/8/5
f 4/3/6 52/2/6 51/77/6 2/115/6
f 13/44/3 37/87/3 59/85/3 56/29/3
f 94/64/3 26/63/3 58/68/3 97/67/3
f 11/37/3 72/65/3 70/66/3 54/32/3
f 14/38/6 11/37/6 54/32/6 53/31/6
f 42/42/2 12/41/2 55/28/2 60/30/2
f 12/41/5 13/44/5 56/29/5 55/28/5
f 74/116/3 14/38/3 53/31/3 76/117/3
f 32/101/3 45/100/3 67/88/3 66/53/3
f 96/105/3 44/104/3 65/48/3 98/61/3
f 31/109/2 43/108/2 63/59/2 62/56/2
f 25/111/6 31/109/6 62/56/6 61/55/6
f 46/93/2 24/112/2 64/52/2 68/54/2
f 24/112/5 32/101/5 66/53/5 64/52/5
f 44/104/3 25/114/3 61/49/3 65/48/3
f 69/33/2 70/66/2 57/118/2 39/78/2 8/1/2
f 72/65/2 40/119/2 57/118/2 70/66/2
f 18/58/6 15/57/6 71/36/6 73/35/6
f 15/57/2 28/60/2 40/119/2 72/65/2 71/36/2
f 26/63/3 74/47/3 76/25/3 58/68/3
f 27/51/3 18/50/3 73/45/3 74/47/3 26/63/3
f 58/68/3 76/25/3 75/27/3 7/13/3 23/12/3
f 75/34/6 69/33/6 8/1/6 7/4/6
f 45/100/3 88/120/3 90/121/3 67/88/3
f 37/87/3 80/122/3 89/123/3 59/85/3
f 30/99/3 83/124/3 88/120/3 45/100/3
f 101/125/2 84/97/2 82/98/2 99/126/2
f 91/127/1 100/128/1 83/96/1 77/95/1
f 91/129/2 77/91/2 87/94/2 104/130/2
f 103/131/2 86/89/2 85/90/2 102/132/2
f 36/81/3 79/133/3 78/134/3 35/82/3
f 29/84/4 35/83/4 78/135/4 82/136/4
f 59/85/3 89/123/3 79/133/3 36/81/3
f 38/86/3 81/137/3 80/122/3 37/87/3
f 67/88/3 90/121/3 81/137/3 38/86/3
f 28/60/2 103/131/2 102/132/2 40/119/2
f 19/107/2 91/129/2 104/130/2 43/108/2
f 19/75/1 21/74/1 100/128/1 91/127/1
f 39/78/2 101/125/2 99/126/2 20/79/2
f 88/120/3 96/105/3 98/61/3 90/121/3
f 80/122/3 94/64/3 97/67/3 89/123/3
f 83/124/3 100/102/3 96/105/3 88/120/3
f 79/133/3 93/69/3 92/76/3 78/134/3
f 82/136/4 78/135/4 92/71/4 99/70/4
f 89/123/3 97/67/3 93/69/3 79/133/3
f 81/137/3 95/62/3 94/64/3 80/122/3
f 90/121/3 98/61/3 95/62/3 81/137/3
