# Blender v2.91.0 OBJ File: 'bed2.blend'
# www.blender.org
mtllib bed2.mtl
o Cube.004_Cube.001
v -43.487118 5.354942 33.230171
v -43.487118 -3.314302 33.230171
v -43.487141 5.354942 -30.054007
v -43.487141 -3.314302 -30.054007
v 49.069515 5.354942 33.230141
v 49.069515 -3.314302 33.230141
v 49.069492 5.354942 -30.054037
v 49.069492 -3.314302 -30.054037
v -43.487118 1.020320 33.230171
v 49.069492 1.020320 -30.054037
v -43.487141 1.020320 -30.054007
v 49.069515 1.020320 33.230141
v 33.965122 -3.314302 33.230145
v 33.965103 5.354942 -30.054031
v 33.965103 -3.314302 -30.054031
v 33.965122 5.354942 33.230145
v 33.965122 1.020320 33.230145
v 33.965103 1.020320 -30.054031
v 11.074317 -3.314302 -30.054024
v 11.074338 5.354942 33.230152
v 11.074338 1.020320 33.230152
v 11.074337 -3.314302 33.230152
v 11.074316 5.354942 -30.054024
v 11.074316 1.020320 -30.054024
v -2.401239 -3.314302 -30.054020
v -2.401218 5.354942 33.230156
v -2.401218 1.020320 33.230156
v -2.401218 -3.314302 33.230156
v -2.401239 5.354942 -30.054020
v -2.401239 1.020320 -30.054020
vt 0.834202 0.500000
vt 0.875000 0.500000
vt 0.875000 0.750000
vt 0.834202 0.750000
vt 0.500000 0.959202
vt 0.625000 0.959202
vt 0.625000 1.000000
vt 0.500000 1.000000
vt 0.500000 0.000000
vt 0.625000 0.000000
vt 0.625000 0.250000
vt 0.500000 0.250000
vt 0.264025 0.500000
vt 0.375000 0.500000
vt 0.375000 0.750000
vt 0.264025 0.750000
vt 0.500000 0.500000
vt 0.625000 0.500000
vt 0.625000 0.750000
vt 0.500000 0.750000
vt 0.500000 0.389025
vt 0.625000 0.389025
vt 0.375000 0.389025
vt 0.375000 0.000000
vt 0.375000 0.250000
vt 0.375000 0.959202
vt 0.375000 1.000000
vt 0.500000 0.290798
vt 0.375000 0.290798
vt 0.625000 0.290798
vt 0.125000 0.500000
vt 0.165798 0.500000
vt 0.165798 0.750000
vt 0.125000 0.750000
vt 0.227627 0.500000
vt 0.227627 0.750000
vt 0.500000 0.860975
vt 0.375000 0.860975
vt 0.625000 0.860975
vt 0.735975 0.500000
vt 0.735975 0.750000
vt 0.286144 0.632028
vt 0.500000 0.632028
vt 0.500000 1.224548
vt 0.286144 1.224548
vt 0.713856 0.632028
vt 0.713856 1.224548
vt 1.679585 0.362374
vt 1.662548 0.882544
vt -0.073010 0.887626
vt -0.055973 0.367456
vt 0.124405 0.051121
vt 0.500000 0.051121
vt 0.500000 0.592303
vt 0.124405 0.592303
vt 0.875595 0.051121
vt 0.875595 0.592303
vt 0.772373 0.500000
vt 0.772373 0.750000
vt 0.625000 0.897373
vt 0.500000 0.897373
vt 0.375000 0.897373
vt 0.375000 0.352627
vt 0.500000 0.352627
vt 0.625000 0.352627
vn 0.0000 1.0000 0.0000
vn -0.0000 0.0000 -1.0000
vn 1.0000 0.0000 -0.0000
vn 0.0000 -1.0000 0.0000
vn -1.0000 0.0000 0.0000
vn 0.0000 0.0000 1.0000
usemtl Material.005
s off
f 16/1/1 5/2/1 7/3/1 14/4/1
f 18/5/2 14/6/2 7/7/2 10/8/2
f 10/9/3 7/10/3 5/11/3 12/12/3
f 28/13/4 2/14/4 4/15/4 25/16/4
f 9/17/5 1/18/5 3/19/5 11/20/5
f 27/21/6 26/22/6 1/18/6 9/17/6
f 28/23/6 27/21/6 9/17/6 2/14/6
f 2/14/5 9/17/5 11/20/5 4/15/5
f 8/24/3 10/9/3 12/12/3 6/25/3
f 15/26/2 18/5/2 10/8/2 8/27/2
f 6/25/6 12/12/6 17/28/6 13/29/6
f 12/12/6 5/11/6 16/30/6 17/28/6
f 6/31/4 13/32/4 15/33/4 8/34/4
f 13/32/4 22/35/4 19/36/4 15/33/4
f 4/15/2 11/20/2 30/37/2 25/38/2
f 11/20/2 3/19/2 29/39/2 30/37/2
f 1/18/1 26/40/1 29/41/1 3/19/1
f 22/35/4 28/13/4 25/16/4 19/36/4
usemtl Material.004
f 19/42/2 24/43/2 18/44/2 15/45/2
f 24/43/2 23/46/2 14/47/2 18/44/2
f 20/48/1 16/49/1 14/50/1 23/51/1
f 13/52/6 17/53/6 21/54/6 22/55/6
f 17/53/6 16/56/6 20/57/6 21/54/6
usemtl Material.003
f 26/40/1 20/58/1 23/59/1 29/41/1
f 30/37/2 29/39/2 23/60/2 24/61/2
f 25/38/2 30/37/2 24/61/2 19/62/2
f 22/63/6 21/64/6 27/21/6 28/23/6
f 21/64/6 20/65/6 26/22/6 27/21/6
o Cubo.012_Cubo.002
v -43.839523 -3.262244 -38.385815
v -43.839523 25.525230 -38.385815
v -43.839497 -3.262244 42.310421
v -43.839497 25.525230 42.310421
v -44.878391 -3.262244 -38.385815
v -44.878391 25.525230 -38.385815
v -44.878365 -3.262244 42.310421
v -44.878365 25.525230 42.310421
vt 0.375000 0.000000
vt 0.625000 0.000000
vt 0.625000 0.250000
vt 0.375000 0.250000
vt 0.625000 0.500000
vt 0.375000 0.500000
vt 0.625000 0.750000
vt 0.375000 0.750000
vt 0.625000 1.000000
vt 0.375000 1.000000
vt 0.125000 0.500000
vt 0.125000 0.750000
vt 0.875000 0.500000
vt 0.875000 0.750000
vn 1.0000 0.0000 -0.0000
vn 0.0000 0.0000 1.0000
vn -1.0000 0.0000 0.0000
vn 0.0000 0.0000 -1.0000
vn 0.0000 -1.0000 0.0000
vn 0.0000 1.0000 0.0000
usemtl Material.002
s off
f 31/66/7 32/67/7 34/68/7 33/69/7
f 33/69/8 34/68/8 38/70/8 37/71/8
f 37/71/9 38/70/9 36/72/9 35/73/9
f 35/73/10 36/72/10 32/74/10 31/75/10
f 33/76/11 37/71/11 35/73/11 31/77/11
f 38/70/12 34/78/12 32/79/12 36/72/12
o Cubo.013_Cubo.001
v 52.850277 -10.542458 -32.354469
v 52.850300 -10.542458 35.565521
v -50.217209 30.407164 45.980473
v 49.633110 -10.542458 35.565525
v 49.633110 -3.347812 35.565525
v 49.633087 -10.542458 -32.354465
v 49.633087 -3.347812 -32.354465
v 52.850277 6.466415 -33.152107
v 52.850300 6.466415 34.767883
v 49.633087 6.466415 -33.152103
v 49.633110 6.466415 34.767887
v -44.857754 -3.347812 35.565556
v -44.857777 -10.542458 -32.354435
v -44.857754 -10.542458 35.565556
v -44.857777 -3.347812 -32.354435
v -50.217239 30.407164 -42.395596
v -44.857750 30.407164 45.980469
v -50.217209 -10.542458 45.980473
v -44.857750 -10.542458 45.980469
v -44.857750 -3.347812 45.980469
v -50.217239 -10.542458 -42.395596
v -44.857780 -10.542458 -42.395599
v -44.857780 -3.347812 -42.395599
v -44.857780 30.407164 -42.395599
v -44.857780 13.529676 -42.395599
vt 0.375000 0.000000
vt 0.625000 0.000000
vt 0.625000 0.250000
vt 0.375000 0.250000
vt 0.375000 0.487749
vt 0.625000 0.487749
vt 0.625000 0.487749
vt 0.375000 0.487749
vt 0.625000 0.750000
vt 0.375000 0.750000
vt 0.375000 0.500000
vt 0.625000 0.500000
vt 0.375000 0.978247
vt 0.625000 0.978247
vt 0.625000 0.978247
vt 0.625000 1.000000
vt 0.375000 1.000000
vt 0.362749 0.750000
vt 0.362749 0.750000
vt 0.362749 0.500000
vt 0.362749 0.500000
vt 0.853247 0.750000
vt 0.853247 0.500000
vt 0.853247 0.500000
vt 0.853247 0.750000
vt 0.637251 0.500000
vt 0.637251 0.750000
vt 0.125000 0.500000
vt 0.146753 0.500000
vt 0.146753 0.750000
vt 0.125000 0.750000
vt 0.375000 0.762251
vt 0.625000 0.762251
vt 0.625000 0.271753
vt 0.625000 0.271753
vt 0.375000 0.271753
vt 0.875000 0.500000
vt 0.875000 0.750000
vt 0.375000 0.762251
vt 0.625000 0.762251
vt 0.637251 0.750000
vt 0.637251 0.750000
vt 0.637251 0.750000
vt 0.637251 0.500000
vt 0.637251 0.500000
vt 0.625000 0.487749
vt 0.625000 0.762251
vt 0.625000 0.762251
vn 1.0000 -0.0000 -0.0000
vn -1.0000 0.0000 0.0000
vn -0.0523 -0.0468 -0.9975
vn 0.0000 -1.0000 0.0000
vn 0.0000 1.0000 0.0000
vn -0.0000 0.0000 -1.0000
vn 0.0523 0.0468 0.9975
vn 0.0000 0.0000 1.0000
usemtl Material.001
s off
f 39/80/13 46/81/13 47/82/13 40/83/13
f 52/84/13 50/85/13 58/86/13 57/87/13
f 54/88/14 59/89/14 56/90/14 41/91/14
f 44/92/15 45/93/15 48/94/15 46/95/15 39/96/15
f 56/90/16 59/89/16 60/97/16 51/98/16 52/99/16 57/100/16
f 45/101/14 43/102/14 49/103/14 48/104/14
f 50/105/17 43/102/17 45/101/17 53/106/17
f 40/107/16 42/108/16 44/109/16 39/110/16
f 51/111/18 53/112/18 45/93/18 44/92/18
f 40/83/19 47/82/19 49/113/19 43/114/19 42/115/19
f 49/103/17 47/116/17 46/117/17 48/104/17
f 53/112/13 51/111/13 60/118/13 61/119/13
f 50/105/13 53/106/13 61/120/13 63/121/13 62/122/13 55/123/13 58/124/13
f 42/108/16 52/99/16 51/98/16 44/109/16
f 42/115/20 43/114/20 50/85/20 52/84/20
f 57/87/20 58/86/20 55/125/20 41/91/20 56/90/20
f 59/89/18 54/88/18 62/126/18 63/127/18 61/119/18 60/118/18
f 55/123/17 62/122/17 54/88/17 41/91/17
