# Blender v2.91.0 OBJ File: 'animatedDrawer2C2.blend'
# www.blender.org
mtllib animatedDrawer2C2.mtl
o Cubo.007_Cubo.010
v 14.182487 -4.782908 6.223657
v 14.182490 4.782898 6.223657
v 14.182492 -4.782908 -6.223646
v 14.182496 4.782898 -6.223646
v -14.182496 -4.782898 6.223646
v -14.182492 4.782908 6.223646
v -14.182490 -4.782898 -6.223657
v -14.182487 4.782908 -6.223657
v -4.780614 -4.782902 -6.223653
v -4.780612 4.782905 -6.223653
v -4.780619 -4.782902 6.223650
v -4.780616 4.782905 6.223650
v 4.700939 -4.782905 -6.223650
v 4.700937 4.782902 6.223653
v 4.700942 4.782902 -6.223650
v 4.700934 -4.782905 6.223653
v 14.182489 3.123804 6.223657
v 14.182495 3.123804 -6.223646
v -14.182487 3.123813 -6.223657
v -14.182493 3.123813 6.223646
v -4.780617 3.123810 6.223650
v -4.780612 3.123810 -6.223653
v 4.700941 3.123807 -6.223650
v 4.700937 3.123807 6.223653
v 4.700942 4.782902 -7.317650
v -4.780611 4.782905 -7.317654
v -4.780612 3.123810 -7.783631
v 4.700942 3.123807 -7.783628
v -13.463376 4.782907 -6.223657
v -13.463386 -4.782899 6.223646
v -13.463381 -4.782899 -6.223657
v -13.463383 4.782907 6.223646
v -13.463384 3.123813 6.223646
v -13.463377 3.123813 -6.223657
v 13.437967 -4.782907 -6.223646
v 13.437965 4.782899 6.223657
v 13.437971 4.782899 -6.223646
v 13.437962 -4.782907 6.223657
v 13.437970 3.123804 -6.223646
v 13.437964 3.123804 6.223657
v 14.182491 -4.782908 -5.398698
v 14.182495 4.782898 -5.398698
v -14.182491 -4.782898 -5.398710
v -14.182487 4.782908 -5.398710
v -4.780612 4.782905 -5.398706
v -4.780615 -4.782902 -5.398706
v 4.700939 -4.782905 -5.398702
v 4.700941 4.782902 -5.398702
v -14.182488 3.123813 -5.398710
v 14.182494 3.123804 -5.398698
v -13.463377 4.782907 -5.398709
v -13.463382 -4.782899 -5.398709
v 13.437966 -4.782907 -5.398699
v 13.437970 4.782899 -5.398699
vt 0.581640 0.233431
vt 0.581640 0.250000
vt 0.625000 0.250000
vt 0.625000 0.233431
vt 0.581640 0.493662
vt 0.581640 0.500000
vt 0.625000 0.500000
vt 0.625000 0.493662
vt 0.581640 0.516569
vt 0.581640 0.750000
vt 0.625000 0.750000
vt 0.625000 0.516569
vt 0.581640 0.993438
vt 0.581640 1.000000
vt 0.625000 1.000000
vt 0.625000 0.993438
vt 0.368662 0.516569
vt 0.368662 0.750000
vt 0.375000 0.750000
vt 0.375000 0.516569
vt 0.868438 0.516569
vt 0.868438 0.750000
vt 0.875000 0.750000
vt 0.875000 0.516569
vt 0.208567 0.516569
vt 0.208567 0.750000
vt 0.292135 0.750000
vt 0.292135 0.516569
vt 0.581640 0.756338
vt 0.581640 0.832865
vt 0.625000 0.832865
vt 0.625000 0.756338
vt 0.581640 0.256562
vt 0.581640 0.333567
vt 0.625000 0.333567
vt 0.625000 0.256562
vt 0.131562 0.516569
vt 0.131562 0.750000
vt 0.581640 0.916433
vt 0.625000 0.916433
vt 0.375000 0.832865
vt 0.375000 0.916433
vt 0.375000 0.256562
vt 0.375000 0.333567
vt 0.375000 0.417135
vt 0.581640 0.417135
vt 0.375000 0.756338
vt 0.375000 0.993438
vt 0.375000 1.000000
vt 0.375000 0.493662
vt 0.375000 0.500000
vt 0.375000 0.233431
vt 0.375000 0.250000
vt 0.631338 0.750000
vt 0.631338 0.516569
vt 0.625000 0.417135
vt 0.125000 0.516569
vt 0.125000 0.750000
vt 0.791433 0.500000
vt 0.791433 0.516569
vt 0.868438 0.500000
vt 0.125000 0.500000
vt 0.131562 0.500000
vt 0.292135 0.500000
vt 0.368662 0.500000
vt 0.631338 0.500000
vt 0.375000 0.000000
vt 0.581640 0.000000
vt 0.707865 0.500000
vt 0.707865 0.516569
vt 0.208567 0.500000
vt 0.875000 0.500000
vt 0.625000 0.000000
vt 0.791433 0.500000
vt 0.707865 0.500000
vt 0.581640 0.333567
vt 0.581640 0.417135
vt 0.625000 0.417135
vt 0.625000 0.333567
vn 1.0000 0.0000 0.0000
vn 0.0000 -0.0000 -1.0000
vn -1.0000 0.0000 -0.0000
vn -0.0000 0.0000 1.0000
vn -0.0000 -1.0000 -0.0000
vn 0.0000 1.0000 0.0000
vn 0.0000 0.2704 -0.9627
usemtl Material.034
s off
f 50/1/1 18/2/1 4/3/1 42/4/1
f 34/5/2 19/6/2 8/7/2 29/8/2
f 49/9/3 20/10/3 6/11/3 44/12/3
f 40/13/4 17/14/4 2/15/4 36/16/4
f 52/17/5 30/18/5 5/19/5 43/20/5
f 54/21/6 36/22/6 2/23/6 42/24/6
f 47/25/5 16/26/5 11/27/5 46/28/5
f 33/29/4 21/30/4 12/31/4 32/32/4
f 39/33/2 23/34/2 15/35/2 37/36/2
f 53/37/5 38/38/5 16/26/5 47/25/5
f 21/30/4 24/39/4 14/40/4 12/31/4
f 11/41/4 16/42/4 24/39/4 21/30/4
f 35/43/2 13/44/2 23/34/2 39/33/2
f 13/44/2 9/45/2 22/46/2 23/34/2
f 30/47/4 11/41/4 21/30/4 33/29/4
f 38/48/4 1/49/4 17/14/4 40/13/4
f 43/20/3 5/19/3 20/10/3 49/9/3
f 31/50/2 7/51/2 19/6/2 34/5/2
f 41/52/1 3/53/1 18/2/1 50/1/1
f 9/45/2 31/50/2 34/5/2 22/46/2
f 5/19/4 30/47/4 33/29/4 20/10/4
f 20/10/4 33/29/4 32/32/4 6/11/4
f 44/12/6 6/11/6 32/54/6 51/55/6
f 46/28/5 11/27/5 30/18/5 52/17/5
f 22/46/2 34/5/2 29/8/2 10/56/2
f 16/42/4 38/48/4 40/13/4 24/39/4
f 3/53/2 35/43/2 39/33/2 18/2/2
f 41/57/5 1/58/5 38/38/5 53/37/5
f 18/2/2 39/33/2 37/36/2 4/3/2
f 24/39/4 40/13/4 36/16/4 14/40/4
f 15/59/6 48/60/6 54/21/6 37/61/6
f 3/62/5 41/57/5 53/37/5 35/63/5
f 9/64/5 46/28/5 52/17/5 31/65/5
f 8/7/6 44/12/6 51/55/6 29/66/6
f 1/67/1 41/52/1 50/1/1 17/68/1
f 7/51/3 43/20/3 49/9/3 19/6/3
f 10/69/6 45/70/6 48/60/6 15/59/6
f 35/63/5 53/37/5 47/25/5 13/71/5
f 13/71/5 47/25/5 46/28/5 9/64/5
f 29/66/6 51/55/6 45/70/6 10/69/6
f 37/61/6 54/21/6 42/24/6 4/72/6
f 31/65/5 52/17/5 43/20/5 7/51/5
f 19/6/3 49/9/3 44/12/3 8/7/3
f 17/68/1 50/1/1 42/4/1 2/73/1
usemtl Material.035
f 15/59/6 25/74/6 26/75/6 10/69/6
f 28/76/7 27/77/7 26/78/7 25/79/7
f 10/56/3 26/78/3 27/77/3 22/46/3
f 22/46/5 27/77/5 28/76/5 23/34/5
f 23/34/1 28/76/1 25/79/1 15/35/1
